<svg width="24" height="24" fill="none" xmlns="http://www.w3.org/2000/svg"><path d="M11.664 2.063 C 11.436 2.146,11.257 2.297,11.131 2.511 L 11.020 2.700 11.009 7.639 L 10.999 12.577 9.309 10.893 C 8.151 9.738,7.564 9.180,7.442 9.119 C 7.195 8.996,6.840 8.994,6.590 9.115 C 6.081 9.362,5.875 9.951,6.121 10.460 C 6.172 10.566,7.087 11.507,8.829 13.245 C 11.219 15.629,11.478 15.876,11.657 15.935 C 11.906 16.017,12.094 16.017,12.343 15.935 C 12.522 15.876,12.781 15.629,15.171 13.245 C 16.913 11.507,17.828 10.566,17.879 10.460 C 18.125 9.951,17.919 9.362,17.410 9.115 C 17.160 8.994,16.805 8.996,16.558 9.119 C 16.436 9.180,15.854 9.732,14.690 10.894 L 13.000 12.580 13.000 7.717 C 13.000 2.251,13.020 2.618,12.701 2.299 C 12.429 2.027,12.018 1.933,11.664 2.063 M2.664 15.063 C 2.436 15.146,2.257 15.297,2.131 15.511 L 2.020 15.700 2.020 18.500 L 2.020 21.300 2.131 21.489 C 2.260 21.709,2.437 21.854,2.678 21.939 C 2.830 21.993,3.916 22.000,11.998 22.000 C 22.265 22.000,21.375 22.027,21.701 21.701 C 22.009 21.394,22.000 21.486,22.000 18.500 C 22.000 15.513,22.009 15.607,21.700 15.298 C 21.390 14.988,20.932 14.920,20.531 15.126 C 20.315 15.238,20.103 15.491,20.042 15.711 C 20.016 15.805,20.000 16.627,20.000 17.930 L 20.000 20.000 12.000 20.000 L 4.000 20.000 4.000 17.927 C 4.000 15.581,4.002 15.600,3.701 15.299 C 3.429 15.027,3.018 14.933,2.664 15.063 " fill="#ffffff" stroke="none" fill-rule="evenodd"></path></svg>